STARTFONT 2.1
FONT -Hewlett Packard-User-Medium-R-Normal-Serif-16-140-72-72-M-80-HP-WA
SIZE 14 72 72
FONTBOUNDINGBOX 8 16 0 -6

STARTPROPERTIES 26
COPYRIGHT "(c)Copyright 1991, Hewlett Packard Company"
NOTICE "Hewlett Packard Co., 3000 Hanover St., Palo Alto, CA 94303, USA"
FONTNAME_REGISTRY ""
FOUNDRY "Hewlett Packard"
FAMILY_NAME "User"
WEIGHT_NAME "Medium"
SLANT "R"
ADD_STYLE_NAME "Serif"
SETWIDTH_NAME "Normal"
PIXEL_SIZE 16
POINT_SIZE 140
RESOLUTION_X 72
RESOLUTION_Y 72
SPACING "M"
AVERAGE_WIDTH 80
CHARSET_REGISTRY "HP"
CHARSET_ENCODING "WA"
CHARSET_COLLECTIONS "HP-WA"
FULL_NAME "User8x16"
CAP_HEIGHT 9
X_HEIGHT 6
WEIGHT 10
QUAD_WIDTH 8
DEFAULT_CHAR 32
FONT_DESCENT 6
FONT_ASCENT 10
ENDPROPERTIES

CHARS 235

STARTCHAR Kasratan
ENCODING 16
SWIDTH 889 0
DWIDTH 8 0
BBX 8 16 0 -6
BITMAP
00
00
00
00
00
00
00
00
04
08
08
1C
6F
97
60
80
ENDCHAR

STARTCHAR Desc
ENCODING 17
SWIDTH 889 0
DWIDTH 8 0
BBX 8 16 0 -6
BITMAP
06
18
62
0A
2A
2C
30
00
08
10
10
18
1F
0F
00
00
ENDCHAR

STARTCHAR Desc
ENCODING 18
SWIDTH 889 0
DWIDTH 8 0
BBX 8 16 0 -6
BITMAP
0C
14
1C
32
4A
2A
2C
30
08
10
10
18
1F
0F
00
00
ENDCHAR

STARTCHAR Desc
ENCODING 19
SWIDTH 889 0
DWIDTH 8 0
BBX 8 16 0 -6
BITMAP
02
0A
2A
2C
33
0C
30
00
08
10
10
18
1F
0F
00
00
ENDCHAR

STARTCHAR Desc
ENCODING 20
SWIDTH 889 0
DWIDTH 8 0
BBX 8 16 0 -6
BITMAP
00
00
03
0C
30
00
00
00
08
10
10
18
1F
0F
00
00
ENDCHAR

STARTCHAR Desc
ENCODING 21
SWIDTH 889 0
DWIDTH 8 0
BBX 8 16 0 -6
BITMAP
00
03
05
07
02
04
08
00
08
10
10
18
1F
0F
00
00
ENDCHAR

STARTCHAR Kasra
ENCODING 22
SWIDTH 889 0
DWIDTH 8 0
BBX 8 16 0 -6
BITMAP
00
00
00
00
00
00
00
00
04
08
08
0C
0F
17
60
80
ENDCHAR

STARTCHAR Desc
ENCODING 23
SWIDTH 889 0
DWIDTH 8 0
BBX 8 16 0 -6
BITMAP
00
06
09
09
06
00
00
00
08
10
10
18
1F
0F
00
00
ENDCHAR

STARTCHAR Desc
ENCODING 24
SWIDTH 889 0
DWIDTH 8 0
BBX 8 16 0 -6
BITMAP
00
01
05
15
16
18
00
00
08
10
10
18
1F
0F
00
00
ENDCHAR

STARTCHAR Ain
ENCODING 25
SWIDTH 889 0
DWIDTH 8 0
BBX 8 16 0 -6
BITMAP
00
00
00
00
00
00
1C
3E
1C
27
40
40
40
61
3E
1C
ENDCHAR

STARTCHAR Intl
ENCODING 26
SWIDTH 889 0
DWIDTH 8 0
BBX 8 16 0 -6
BITMAP
00
10
30
10
10
10
10
10
30
E0
00
00
00
00
00
00
ENDCHAR

STARTCHAR Lam
ENCODING 28
SWIDTH 889 0
DWIDTH 8 0
BBX 8 16 0 -6
BITMAP
00
02
C2
E2
36
16
1A
1A
13
21
C0
00
00
00
00
00
ENDCHAR

STARTCHAR Heh
ENCODING 29
SWIDTH 889 0
DWIDTH 8 0
BBX 8 16 0 -6
BITMAP
00
00
04
04
1C
34
44
7C
36
03
00
00
00
00
00
00
ENDCHAR

STARTCHAR space
ENCODING 32
SWIDTH 889 0
DWIDTH 8 0
BBX 8 16 0 -6
BITMAP
00
00
00
00
00
00
00
00
00
00
00
00
00
00
00
00
ENDCHAR

STARTCHAR exclam
ENCODING 33
SWIDTH 889 0
DWIDTH 8 0
BBX 8 16 0 -6
BITMAP
18
18
18
18
18
18
18
00
00
18
18
00
00
00
00
00
ENDCHAR

STARTCHAR quotedbl
ENCODING 34
SWIDTH 889 0
DWIDTH 8 0
BBX 8 16 0 -6
BITMAP
24
24
24
24
24
00
00
00
00
00
00
00
00
00
00
00
ENDCHAR

STARTCHAR numbersign
ENCODING 35
SWIDTH 889 0
DWIDTH 8 0
BBX 8 16 0 -6
BITMAP
14
14
14
7F
14
14
14
7F
14
14
14
00
00
00
00
00
ENDCHAR

STARTCHAR dollar
ENCODING 36
SWIDTH 889 0
DWIDTH 8 0
BBX 8 16 0 -6
BITMAP
08
1E
22
20
20
1C
02
02
22
3C
08
00
00
00
00
00
ENDCHAR

STARTCHAR percent
ENCODING 37
SWIDTH 889 0
DWIDTH 8 0
BBX 8 16 0 -6
BITMAP
62
94
94
68
08
10
10
26
29
49
46
00
00
00
00
00
ENDCHAR

STARTCHAR ampersand
ENCODING 38
SWIDTH 889 0
DWIDTH 8 0
BBX 8 16 0 -6
BITMAP
18
24
24
24
24
18
25
22
22
22
1D
00
00
00
00
00
ENDCHAR

STARTCHAR quoteright
ENCODING 39
SWIDTH 889 0
DWIDTH 8 0
BBX 8 16 0 -6
BITMAP
18
18
08
10
20
00
00
00
00
00
00
00
00
00
00
00
ENDCHAR

STARTCHAR parenleft
ENCODING 40
SWIDTH 889 0
DWIDTH 8 0
BBX 8 16 0 -6
BITMAP
02
04
0C
08
18
18
18
18
08
0C
04
02
00
00
00
00
ENDCHAR

STARTCHAR parenright
ENCODING 41
SWIDTH 889 0
DWIDTH 8 0
BBX 8 16 0 -6
BITMAP
20
10
18
08
0C
0C
0C
0C
08
18
10
20
00
00
00
00
ENDCHAR

STARTCHAR asterisk
ENCODING 42
SWIDTH 889 0
DWIDTH 8 0
BBX 8 16 0 -6
BITMAP
00
00
08
49
2A
1C
2A
49
08
00
00
00
00
00
00
00
ENDCHAR

STARTCHAR plus
ENCODING 43
SWIDTH 889 0
DWIDTH 8 0
BBX 8 16 0 -6
BITMAP
00
00
08
08
08
7F
08
08
08
00
00
00
00
00
00
00
ENDCHAR

STARTCHAR comma
ENCODING 44
SWIDTH 889 0
DWIDTH 8 0
BBX 8 16 0 -6
BITMAP
00
00
00
00
00
00
00
00
18
18
08
10
20
00
00
00
ENDCHAR

STARTCHAR hyphen
ENCODING 45
SWIDTH 889 0
DWIDTH 8 0
BBX 8 16 0 -6
BITMAP
00
00
00
00
00
7F
00
00
00
00
00
00
00
00
00
00
ENDCHAR

STARTCHAR period
ENCODING 46
SWIDTH 889 0
DWIDTH 8 0
BBX 8 16 0 -6
BITMAP
00
00
00
00
00
00
00
00
18
18
00
00
00
00
00
00
ENDCHAR

STARTCHAR c1224
ENCODING 47
SWIDTH 889 0
DWIDTH 8 0
BBX 8 16 0 -6
BITMAP
02
02
04
04
08
08
10
10
20
20
40
40
00
00
00
00
ENDCHAR

STARTCHAR zero
ENCODING 48
SWIDTH 889 0
DWIDTH 8 0
BBX 8 16 0 -6
BITMAP
00
3C
42
42
5A
5A
42
42
42
3C
00
00
00
00
00
00
ENDCHAR

STARTCHAR one
ENCODING 49
SWIDTH 889 0
DWIDTH 8 0
BBX 8 16 0 -6
BITMAP
00
08
38
08
08
08
08
08
08
08
00
00
00
00
00
00
ENDCHAR

STARTCHAR two
ENCODING 50
SWIDTH 889 0
DWIDTH 8 0
BBX 8 16 0 -6
BITMAP
00
3C
42
42
02
0C
10
20
42
7E
00
00
00
00
00
00
ENDCHAR

STARTCHAR three
ENCODING 51
SWIDTH 889 0
DWIDTH 8 0
BBX 8 16 0 -6
BITMAP
00
1C
22
02
02
1C
02
02
42
3C
00
00
00
00
00
00
ENDCHAR

STARTCHAR four
ENCODING 52
SWIDTH 889 0
DWIDTH 8 0
BBX 8 16 0 -6
BITMAP
00
08
10
10
24
24
44
7E
04
04
00
00
00
00
00
00
ENDCHAR

STARTCHAR five
ENCODING 53
SWIDTH 889 0
DWIDTH 8 0
BBX 8 16 0 -6
BITMAP
00
3E
20
20
3C
02
02
02
42
3C
00
00
00
00
00
00
ENDCHAR

STARTCHAR six
ENCODING 54
SWIDTH 889 0
DWIDTH 8 0
BBX 8 16 0 -6
BITMAP
00
1C
20
40
5C
62
42
42
42
3C
00
00
00
00
00
00
ENDCHAR

STARTCHAR seven
ENCODING 55
SWIDTH 889 0
DWIDTH 8 0
BBX 8 16 0 -6
BITMAP
00
7E
02
04
04
08
08
08
10
10
00
00
00
00
00
00
ENDCHAR

STARTCHAR eight
ENCODING 56
SWIDTH 889 0
DWIDTH 8 0
BBX 8 16 0 -6
BITMAP
00
3C
42
42
42
3C
42
42
42
3C
00
00
00
00
00
00
ENDCHAR

STARTCHAR nine
ENCODING 57
SWIDTH 889 0
DWIDTH 8 0
BBX 8 16 0 -6
BITMAP
00
3C
42
42
42
46
3A
02
04
38
00
00
00
00
00
00
ENDCHAR

STARTCHAR colon
ENCODING 58
SWIDTH 889 0
DWIDTH 8 0
BBX 8 16 0 -6
BITMAP
00
00
00
00
18
18
00
00
18
18
00
00
00
00
00
00
ENDCHAR

STARTCHAR semicolon
ENCODING 59
SWIDTH 889 0
DWIDTH 8 0
BBX 8 16 0 -6
BITMAP
00
00
00
00
18
18
00
00
18
18
08
10
20
00
00
00
ENDCHAR

STARTCHAR less
ENCODING 60
SWIDTH 889 0
DWIDTH 8 0
BBX 8 16 0 -6
BITMAP
00
04
08
10
20
40
20
10
08
04
00
00
00
00
00
00
ENDCHAR

STARTCHAR equal
ENCODING 61
SWIDTH 889 0
DWIDTH 8 0
BBX 8 16 0 -6
BITMAP
00
00
00
00
7F
00
7F
00
00
00
00
00
00
00
00
00
ENDCHAR

STARTCHAR greater
ENCODING 62
SWIDTH 889 0
DWIDTH 8 0
BBX 8 16 0 -6
BITMAP
00
20
10
08
04
02
04
08
10
20
00
00
00
00
00
00
ENDCHAR

STARTCHAR question
ENCODING 63
SWIDTH 889 0
DWIDTH 8 0
BBX 8 16 0 -6
BITMAP
3C
66
66
06
0C
18
18
00
00
18
18
00
00
00
00
00
ENDCHAR

STARTCHAR at
ENCODING 64
SWIDTH 889 0
DWIDTH 8 0
BBX 8 16 0 -6
BITMAP
1C
22
22
4E
52
52
52
4D
20
22
1C
00
00
00
00
00
ENDCHAR

STARTCHAR A
ENCODING 65
SWIDTH 889 0
DWIDTH 8 0
BBX 8 16 0 -6
BITMAP
00
08
08
14
14
14
3E
22
22
77
00
00
00
00
00
00
ENDCHAR

STARTCHAR B
ENCODING 66
SWIDTH 889 0
DWIDTH 8 0
BBX 8 16 0 -6
BITMAP
00
7C
22
22
22
3C
22
22
22
7C
00
00
00
00
00
00
ENDCHAR

STARTCHAR C
ENCODING 67
SWIDTH 889 0
DWIDTH 8 0
BBX 8 16 0 -6
BITMAP
00
1E
22
40
40
40
40
40
22
1C
00
00
00
00
00
00
ENDCHAR

STARTCHAR D
ENCODING 68
SWIDTH 889 0
DWIDTH 8 0
BBX 8 16 0 -6
BITMAP
00
7C
22
21
21
21
21
21
22
7C
00
00
00
00
00
00
ENDCHAR

STARTCHAR E
ENCODING 69
SWIDTH 889 0
DWIDTH 8 0
BBX 8 16 0 -6
BITMAP
00
7E
22
20
24
3C
24
20
22
7E
00
00
00
00
00
00
ENDCHAR

STARTCHAR F
ENCODING 70
SWIDTH 889 0
DWIDTH 8 0
BBX 8 16 0 -6
BITMAP
00
7E
22
20
24
3C
24
20
20
78
00
00
00
00
00
00
ENDCHAR

STARTCHAR G
ENCODING 71
SWIDTH 889 0
DWIDTH 8 0
BBX 8 16 0 -6
BITMAP
00
1E
22
40
40
40
4F
42
22
1C
00
00
00
00
00
00
ENDCHAR

STARTCHAR H
ENCODING 72
SWIDTH 889 0
DWIDTH 8 0
BBX 8 16 0 -6
BITMAP
00
77
22
22
22
3E
22
22
22
77
00
00
00
00
00
00
ENDCHAR

STARTCHAR I
ENCODING 73
SWIDTH 889 0
DWIDTH 8 0
BBX 8 16 0 -6
BITMAP
00
3E
08
08
08
08
08
08
08
3E
00
00
00
00
00
00
ENDCHAR

STARTCHAR J
ENCODING 74
SWIDTH 889 0
DWIDTH 8 0
BBX 8 16 0 -6
BITMAP
00
1E
04
04
04
04
04
44
44
38
00
00
00
00
00
00
ENDCHAR

STARTCHAR K
ENCODING 75
SWIDTH 889 0
DWIDTH 8 0
BBX 8 16 0 -6
BITMAP
00
77
22
24
28
3C
24
26
22
73
00
00
00
00
00
00
ENDCHAR

STARTCHAR L
ENCODING 76
SWIDTH 889 0
DWIDTH 8 0
BBX 8 16 0 -6
BITMAP
00
70
20
20
20
20
20
20
22
7E
00
00
00
00
00
00
ENDCHAR

STARTCHAR M
ENCODING 77
SWIDTH 889 0
DWIDTH 8 0
BBX 8 16 0 -6
BITMAP
00
63
36
36
2A
2A
2A
22
22
77
00
00
00
00
00
00
ENDCHAR

STARTCHAR N
ENCODING 78
SWIDTH 889 0
DWIDTH 8 0
BBX 8 16 0 -6
BITMAP
00
67
32
32
2A
2A
2A
26
26
72
00
00
00
00
00
00
ENDCHAR

STARTCHAR O
ENCODING 79
SWIDTH 889 0
DWIDTH 8 0
BBX 8 16 0 -6
BITMAP
00
1C
22
41
41
41
41
41
22
1C
00
00
00
00
00
00
ENDCHAR

STARTCHAR P
ENCODING 80
SWIDTH 889 0
DWIDTH 8 0
BBX 8 16 0 -6
BITMAP
00
7C
22
22
22
3C
20
20
20
78
00
00
00
00
00
00
ENDCHAR

STARTCHAR Q
ENCODING 81
SWIDTH 889 0
DWIDTH 8 0
BBX 8 16 0 -6
BITMAP
00
1C
22
41
41
41
41
41
22
1C
04
02
01
00
00
00
ENDCHAR

STARTCHAR R
ENCODING 82
SWIDTH 889 0
DWIDTH 8 0
BBX 8 16 0 -6
BITMAP
00
7C
22
22
22
3C
24
22
22
73
00
00
00
00
00
00
ENDCHAR

STARTCHAR S
ENCODING 83
SWIDTH 889 0
DWIDTH 8 0
BBX 8 16 0 -6
BITMAP
00
1E
22
20
20
1C
02
02
22
3C
00
00
00
00
00
00
ENDCHAR

STARTCHAR T
ENCODING 84
SWIDTH 889 0
DWIDTH 8 0
BBX 8 16 0 -6
BITMAP
00
7F
49
08
08
08
08
08
08
1C
00
00
00
00
00
00
ENDCHAR

STARTCHAR U
ENCODING 85
SWIDTH 889 0
DWIDTH 8 0
BBX 8 16 0 -6
BITMAP
00
77
22
22
22
22
22
22
22
1C
00
00
00
00
00
00
ENDCHAR

STARTCHAR V
ENCODING 86
SWIDTH 889 0
DWIDTH 8 0
BBX 8 16 0 -6
BITMAP
00
77
22
22
14
14
14
08
08
08
00
00
00
00
00
00
ENDCHAR

STARTCHAR W
ENCODING 87
SWIDTH 889 0
DWIDTH 8 0
BBX 8 16 0 -6
BITMAP
00
E7
42
42
42
5A
5A
24
24
24
00
00
00
00
00
00
ENDCHAR

STARTCHAR X
ENCODING 88
SWIDTH 889 0
DWIDTH 8 0
BBX 8 16 0 -6
BITMAP
00
77
22
14
14
08
14
14
22
77
00
00
00
00
00
00
ENDCHAR

STARTCHAR Y
ENCODING 89
SWIDTH 889 0
DWIDTH 8 0
BBX 8 16 0 -6
BITMAP
00
77
22
22
14
14
08
08
08
1C
00
00
00
00
00
00
ENDCHAR

STARTCHAR Z
ENCODING 90
SWIDTH 889 0
DWIDTH 8 0
BBX 8 16 0 -6
BITMAP
00
3E
22
04
04
08
10
10
22
3E
00
00
00
00
00
00
ENDCHAR

STARTCHAR bracketleft
ENCODING 91
SWIDTH 889 0
DWIDTH 8 0
BBX 8 16 0 -6
BITMAP
1E
18
18
18
18
18
18
18
18
18
18
1E
00
00
00
00
ENDCHAR

STARTCHAR c4540
ENCODING 92
SWIDTH 889 0
DWIDTH 8 0
BBX 8 16 0 -6
BITMAP
20
20
10
10
08
08
04
04
02
02
01
01
00
00
00
00
ENDCHAR

STARTCHAR bracketright
ENCODING 93
SWIDTH 889 0
DWIDTH 8 0
BBX 8 16 0 -6
BITMAP
3C
0C
0C
0C
0C
0C
0C
0C
0C
0C
0C
3C
00
00
00
00
ENDCHAR

STARTCHAR asciicircum
ENCODING 94
SWIDTH 889 0
DWIDTH 8 0
BBX 8 16 0 -6
BITMAP
00
08
14
22
00
00
00
00
00
00
00
00
00
00
00
00
ENDCHAR

STARTCHAR underscore
ENCODING 95
SWIDTH 889 0
DWIDTH 8 0
BBX 8 16 0 -6
BITMAP
00
00
00
00
00
00
00
00
00
00
FF
00
00
00
00
00
ENDCHAR

STARTCHAR quoteleft
ENCODING 96
SWIDTH 889 0
DWIDTH 8 0
BBX 8 16 0 -6
BITMAP
04
08
10
18
18
00
00
00
00
00
00
00
00
00
00
00
ENDCHAR

STARTCHAR a
ENCODING 97
SWIDTH 889 0
DWIDTH 8 0
BBX 8 16 0 -6
BITMAP
00
00
00
00
38
04
3C
44
4C
36
00
00
00
00
00
00
ENDCHAR

STARTCHAR b
ENCODING 98
SWIDTH 889 0
DWIDTH 8 0
BBX 8 16 0 -6
BITMAP
00
60
20
20
2E
31
21
21
31
2E
00
00
00
00
00
00
ENDCHAR

STARTCHAR c
ENCODING 99
SWIDTH 889 0
DWIDTH 8 0
BBX 8 16 0 -6
BITMAP
00
00
00
00
1E
22
20
20
22
1C
00
00
00
00
00
00
ENDCHAR

STARTCHAR d
ENCODING 100
SWIDTH 889 0
DWIDTH 8 0
BBX 8 16 0 -6
BITMAP
00
06
02
02
3A
46
42
42
46
3B
00
00
00
00
00
00
ENDCHAR

STARTCHAR e
ENCODING 101
SWIDTH 889 0
DWIDTH 8 0
BBX 8 16 0 -6
BITMAP
00
00
00
00
1C
22
3E
20
22
1C
00
00
00
00
00
00
ENDCHAR

STARTCHAR f
ENCODING 102
SWIDTH 889 0
DWIDTH 8 0
BBX 8 16 0 -6
BITMAP
00
0E
10
10
7C
10
10
10
10
7C
00
00
00
00
00
00
ENDCHAR

STARTCHAR g
ENCODING 103
SWIDTH 889 0
DWIDTH 8 0
BBX 8 16 0 -6
BITMAP
00
00
00
00
1C
23
22
1C
20
1E
21
21
1E
00
00
00
ENDCHAR

STARTCHAR h
ENCODING 104
SWIDTH 889 0
DWIDTH 8 0
BBX 8 16 0 -6
BITMAP
00
60
20
20
2C
32
22
22
22
77
00
00
00
00
00
00
ENDCHAR

STARTCHAR i
ENCODING 105
SWIDTH 889 0
DWIDTH 8 0
BBX 8 16 0 -6
BITMAP
00
08
08
00
38
08
08
08
08
3E
00
00
00
00
00
00
ENDCHAR

STARTCHAR j
ENCODING 106
SWIDTH 889 0
DWIDTH 8 0
BBX 8 16 0 -6
BITMAP
00
04
04
00
1C
04
04
04
04
04
04
24
18
00
00
00
ENDCHAR

STARTCHAR k
ENCODING 107
SWIDTH 889 0
DWIDTH 8 0
BBX 8 16 0 -6
BITMAP
00
60
20
20
26
24
38
28
24
73
00
00
00
00
00
00
ENDCHAR

STARTCHAR l
ENCODING 108
SWIDTH 889 0
DWIDTH 8 0
BBX 8 16 0 -6
BITMAP
00
38
08
08
08
08
08
08
08
3E
00
00
00
00
00
00
ENDCHAR

STARTCHAR m
ENCODING 109
SWIDTH 889 0
DWIDTH 8 0
BBX 8 16 0 -6
BITMAP
00
00
00
00
B6
49
49
49
49
DB
00
00
00
00
00
00
ENDCHAR

STARTCHAR n
ENCODING 110
SWIDTH 889 0
DWIDTH 8 0
BBX 8 16 0 -6
BITMAP
00
00
00
00
6C
32
22
22
22
77
00
00
00
00
00
00
ENDCHAR

STARTCHAR o
ENCODING 111
SWIDTH 889 0
DWIDTH 8 0
BBX 8 16 0 -6
BITMAP
00
00
00
00
1C
22
22
22
22
1C
00
00
00
00
00
00
ENDCHAR

STARTCHAR p
ENCODING 112
SWIDTH 889 0
DWIDTH 8 0
BBX 8 16 0 -6
BITMAP
00
00
00
00
6E
31
21
21
31
2E
20
20
70
00
00
00
ENDCHAR

STARTCHAR q
ENCODING 113
SWIDTH 889 0
DWIDTH 8 0
BBX 8 16 0 -6
BITMAP
00
00
00
00
3A
46
42
42
46
3A
02
02
07
00
00
00
ENDCHAR

STARTCHAR r
ENCODING 114
SWIDTH 889 0
DWIDTH 8 0
BBX 8 16 0 -6
BITMAP
00
00
00
00
36
1A
10
10
10
38
00
00
00
00
00
00
ENDCHAR

STARTCHAR s
ENCODING 115
SWIDTH 889 0
DWIDTH 8 0
BBX 8 16 0 -6
BITMAP
00
00
00
00
1E
20
1C
02
22
3C
00
00
00
00
00
00
ENDCHAR

STARTCHAR t
ENCODING 116
SWIDTH 889 0
DWIDTH 8 0
BBX 8 16 0 -6
BITMAP
00
00
10
10
7E
10
10
10
11
0E
00
00
00
00
00
00
ENDCHAR

STARTCHAR u
ENCODING 117
SWIDTH 889 0
DWIDTH 8 0
BBX 8 16 0 -6
BITMAP
00
00
00
00
66
22
22
22
26
1B
00
00
00
00
00
00
ENDCHAR

STARTCHAR v
ENCODING 118
SWIDTH 889 0
DWIDTH 8 0
BBX 8 16 0 -6
BITMAP
00
00
00
00
77
22
14
14
08
08
00
00
00
00
00
00
ENDCHAR

STARTCHAR w
ENCODING 119
SWIDTH 889 0
DWIDTH 8 0
BBX 8 16 0 -6
BITMAP
00
00
00
00
E7
42
5A
5A
24
24
00
00
00
00
00
00
ENDCHAR

STARTCHAR x
ENCODING 120
SWIDTH 889 0
DWIDTH 8 0
BBX 8 16 0 -6
BITMAP
00
00
00
00
66
24
18
18
24
66
00
00
00
00
00
00
ENDCHAR

STARTCHAR y
ENCODING 121
SWIDTH 889 0
DWIDTH 8 0
BBX 8 16 0 -6
BITMAP
00
00
00
00
77
22
14
14
08
08
10
10
60
00
00
00
ENDCHAR

STARTCHAR z
ENCODING 122
SWIDTH 889 0
DWIDTH 8 0
BBX 8 16 0 -6
BITMAP
00
00
00
00
3E
24
08
08
12
3E
00
00
00
00
00
00
ENDCHAR

STARTCHAR braceleft
ENCODING 123
SWIDTH 889 0
DWIDTH 8 0
BBX 8 16 0 -6
BITMAP
06
0C
0C
0C
08
30
08
0C
0C
0C
06
00
00
00
00
00
ENDCHAR

STARTCHAR bar
ENCODING 124
SWIDTH 889 0
DWIDTH 8 0
BBX 8 16 0 -6
BITMAP
08
08
08
08
08
08
08
08
08
08
08
00
00
00
00
00
ENDCHAR

STARTCHAR braceright
ENCODING 125
SWIDTH 889 0
DWIDTH 8 0
BBX 8 16 0 -6
BITMAP
30
18
18
18
08
06
08
18
18
18
30
00
00
00
00
00
ENDCHAR

STARTCHAR asciitilde
ENCODING 126
SWIDTH 889 0
DWIDTH 8 0
BBX 8 16 0 -6
BITMAP
00
00
00
10
39
4E
04
00
00
00
00
00
00
00
00
00
ENDCHAR

STARTCHAR Khah
ENCODING 127
SWIDTH 889 0
DWIDTH 8 0
BBX 8 16 0 -6
BITMAP
00
10
38
10
00
30
4C
03
1C
E0
00
00
00
00
00
00
ENDCHAR

STARTCHAR Lam
ENCODING 128
SWIDTH 889 0
DWIDTH 8 0
BBX 8 16 0 -6
BITMAP
60
82
D2
62
C6
E6
3A
1A
13
21
C0
00
00
00
00
00
ENDCHAR

STARTCHAR Line
ENCODING 129
SWIDTH 889 0
DWIDTH 8 0
BBX 8 16 0 -6
BITMAP
00
00
00
00
00
00
04
08
0C
07
00
00
00
00
00
00
ENDCHAR

STARTCHAR Descender
ENCODING 130
SWIDTH 889 0
DWIDTH 8 0
BBX 8 16 0 -6
BITMAP
00
00
00
00
00
00
00
00
08
10
10
18
1F
0F
00
00
ENDCHAR

STARTCHAR Alef
ENCODING 131
SWIDTH 889 0
DWIDTH 8 0
BBX 8 16 0 -6
BITMAP
01
26
29
26
28
20
20
20
30
1F
00
00
00
00
00
00
ENDCHAR

STARTCHAR Line
ENCODING 132
SWIDTH 889 0
DWIDTH 8 0
BBX 8 16 0 -6
BITMAP
06
0A
0E
26
78
10
24
08
0C
07
00
00
00
00
00
00
ENDCHAR

STARTCHAR Kasratan
ENCODING 133
SWIDTH 889 0
DWIDTH 8 0
BBX 8 16 0 -6
BITMAP
00
00
00
00
00
00
04
08
0C
07
00
01
06
09
06
08
ENDCHAR

STARTCHAR Line
ENCODING 134
SWIDTH 889 0
DWIDTH 8 0
BBX 8 16 0 -6
BITMAP
0C
30
C4
14
54
58
64
08
0C
07
00
00
00
00
00
00
ENDCHAR

STARTCHAR Line
ENCODING 135
SWIDTH 889 0
DWIDTH 8 0
BBX 8 16 0 -6
BITMAP
18
28
30
C8
28
A8
B4
C8
0C
07
00
00
00
00
00
00
ENDCHAR

STARTCHAR Line
ENCODING 136
SWIDTH 889 0
DWIDTH 8 0
BBX 8 16 0 -6
BITMAP
04
14
54
58
64
18
64
08
0C
07
00
00
00
00
00
00
ENDCHAR

STARTCHAR Line
ENCODING 137
SWIDTH 889 0
DWIDTH 8 0
BBX 8 16 0 -6
BITMAP
00
01
06
08
00
00
04
08
0C
07
00
00
00
00
00
00
ENDCHAR

STARTCHAR Line
ENCODING 138
SWIDTH 889 0
DWIDTH 8 0
BBX 8 16 0 -6
BITMAP
03
05
07
03
06
18
04
08
0C
07
00
00
00
00
00
00
ENDCHAR

STARTCHAR Kasra
ENCODING 139
SWIDTH 889 0
DWIDTH 8 0
BBX 8 16 0 -6
BITMAP
00
00
00
00
00
00
04
08
0C
07
00
00
01
06
08
00
ENDCHAR

STARTCHAR Line
ENCODING 140
SWIDTH 889 0
DWIDTH 8 0
BBX 8 16 0 -6
BITMAP
06
09
09
06
00
00
04
08
0C
07
00
00
00
00
00
00
ENDCHAR

STARTCHAR Line
ENCODING 141
SWIDTH 889 0
DWIDTH 8 0
BBX 8 16 0 -6
BITMAP
01
05
15
16
18
00
04
08
0C
07
00
00
00
00
00
00
ENDCHAR

STARTCHAR Alef
ENCODING 142
SWIDTH 889 0
DWIDTH 8 0
BBX 8 16 0 -6
BITMAP
04
18
24
18
20
08
08
08
08
08
08
08
00
00
00
00
ENDCHAR

STARTCHAR Desc
ENCODING 143
SWIDTH 889 0
DWIDTH 8 0
BBX 8 16 0 -6
BITMAP
00
03
05
07
13
3C
08
10
04
08
08
08
0C
07
00
00
ENDCHAR

STARTCHAR Jeem
ENCODING 144
SWIDTH 889 0
DWIDTH 8 0
BBX 8 16 0 -6
BITMAP
00
00
00
00
00
00
30
7E
9C
20
48
5C
48
61
3E
1C
ENDCHAR

STARTCHAR Hah
ENCODING 145
SWIDTH 889 0
DWIDTH 8 0
BBX 8 16 0 -6
BITMAP
00
00
00
00
00
00
30
7E
9C
20
40
40
40
61
3E
1C
ENDCHAR

STARTCHAR Kha
ENCODING 146
SWIDTH 889 0
DWIDTH 8 0
BBX 8 16 0 -6
BITMAP
00
00
10
38
10
00
30
7E
9C
20
40
40
40
61
3E
1C
ENDCHAR

STARTCHAR Teh
ENCODING 147
SWIDTH 889 0
DWIDTH 8 0
BBX 8 16 0 -6
BITMAP
22
77
22
04
1C
34
64
7C
36
03
00
00
00
00
00
00
ENDCHAR

STARTCHAR Alef
ENCODING 148
SWIDTH 889 0
DWIDTH 8 0
BBX 8 16 0 -6
BITMAP
00
08
08
08
08
08
08
08
0C
07
00
00
00
00
00
00
ENDCHAR

STARTCHAR Yeh
ENCODING 149
SWIDTH 889 0
DWIDTH 8 0
BBX 8 16 0 -6
BITMAP
00
00
00
00
00
00
00
00
07
4F
88
86
C3
FF
7E
6C
ENDCHAR

STARTCHAR Yeh
ENCODING 150
SWIDTH 889 0
DWIDTH 8 0
BBX 8 16 0 -6
BITMAP
00
00
30
40
68
30
40
00
07
4F
88
8E
87
C3
FE
7C
ENDCHAR

STARTCHAR Alef
ENCODING 151
SWIDTH 889 0
DWIDTH 8 0
BBX 8 16 0 -6
BITMAP
00
00
00
00
00
00
00
00
07
4F
88
8E
87
C3
FE
7C
ENDCHAR

STARTCHAR Lam
ENCODING 152
SWIDTH 889 0
DWIDTH 8 0
BBX 8 16 0 -6
BITMAP
60
99
D9
65
85
03
03
05
1D
1E
00
00
00
00
00
00
ENDCHAR

STARTCHAR Lam
ENCODING 153
SWIDTH 889 0
DWIDTH 8 0
BBX 8 16 0 -6
BITMAP
74
9A
62
72
1A
0E
06
0A
3A
3C
00
00
00
00
00
00
ENDCHAR

STARTCHAR Hamza
ENCODING 154
SWIDTH 889 0
DWIDTH 8 0
BBX 8 16 0 -6
BITMAP
00
62
72
1A
0A
06
06
0A
3A
3C
00
18
20
34
18
20
ENDCHAR

STARTCHAR Lam
ENCODING 155
SWIDTH 889 0
DWIDTH 8 0
BBX 8 16 0 -6
BITMAP
00
62
72
1A
0A
06
06
0A
3A
3C
00
00
00
00
00
00
ENDCHAR

STARTCHAR Lam
ENCODING 156
SWIDTH 889 0
DWIDTH 8 0
BBX 8 16 0 -6
BITMAP
00
08
08
08
08
08
08
08
1C
E7
00
00
00
00
00
00
ENDCHAR

STARTCHAR Alef
ENCODING 157
SWIDTH 889 0
DWIDTH 8 0
BBX 8 16 0 -6
BITMAP
60
88
D8
68
88
08
08
08
0C
07
00
00
00
00
00
00
ENDCHAR

STARTCHAR Alef
ENCODING 158
SWIDTH 889 0
DWIDTH 8 0
BBX 8 16 0 -6
BITMAP
19
26
08
08
08
08
08
08
0C
07
00
00
00
00
00
00
ENDCHAR

STARTCHAR Hamza
ENCODING 159
SWIDTH 889 0
DWIDTH 8 0
BBX 8 16 0 -6
BITMAP
00
08
08
08
08
08
08
08
0C
07
00
0C
10
1A
0C
10
ENDCHAR

STARTCHAR Meem
ENCODING 161
SWIDTH 889 0
DWIDTH 8 0
BBX 8 16 0 -6
BITMAP
00
00
00
00
00
0C
1E
33
73
DF
0E
00
00
00
00
00
ENDCHAR

STARTCHAR Noon
ENCODING 162
SWIDTH 889 0
DWIDTH 8 0
BBX 8 16 0 -6
BITMAP
00
08
1C
08
00
01
01
01
03
FE
00
00
00
00
00
00
ENDCHAR

STARTCHAR Qaf
ENCODING 163
SWIDTH 889 0
DWIDTH 8 0
BBX 8 16 0 -6
BITMAP
08
5C
E8
46
0B
09
0D
07
01
FE
00
00
00
00
00
00
ENDCHAR

STARTCHAR Yeh
ENCODING 164
SWIDTH 889 0
DWIDTH 8 0
BBX 8 16 0 -6
BITMAP
00
00
00
00
00
01
01
01
03
FE
00
04
2E
74
20
00
ENDCHAR

STARTCHAR Seen
ENCODING 165
SWIDTH 889 0
DWIDTH 8 0
BBX 8 16 0 -6
BITMAP
00
00
00
00
00
01
49
49
FF
B6
00
00
00
00
00
00
ENDCHAR

STARTCHAR Sheen
ENCODING 166
SWIDTH 889 0
DWIDTH 8 0
BBX 8 16 0 -6
BITMAP
10
38
54
EE
44
01
49
49
FF
B6
00
00
00
00
00
00
ENDCHAR

STARTCHAR Sad
ENCODING 167
SWIDTH 889 0
DWIDTH 8 0
BBX 8 16 0 -6
BITMAP
00
00
00
00
00
00
06
49
51
BE
20
00
00
00
00
00
ENDCHAR

STARTCHAR Dad
ENCODING 168
SWIDTH 889 0
DWIDTH 8 0
BBX 8 16 0 -6
BITMAP
00
00
00
10
38
10
06
49
51
BE
20
00
00
00
00
00
ENDCHAR

STARTCHAR Shadda
ENCODING 169
SWIDTH 889 0
DWIDTH 8 0
BBX 8 16 0 -6
BITMAP
06
18
22
0A
2A
2C
30
00
00
FF
00
00
00
00
00
00
ENDCHAR

STARTCHAR Jeem
ENCODING 170
SWIDTH 889 0
DWIDTH 8 0
BBX 8 16 0 -6
BITMAP
00
00
00
00
00
30
58
0E
38
E0
08
1C
08
00
00
00
ENDCHAR

STARTCHAR Hah
ENCODING 171
SWIDTH 889 0
DWIDTH 8 0
BBX 8 16 0 -6
BITMAP
00
00
00
00
00
30
58
0E
38
E0
00
00
00
00
00
00
ENDCHAR

STARTCHAR Arabic
ENCODING 172
SWIDTH 889 0
DWIDTH 8 0
BBX 8 16 0 -6
BITMAP
00
00
00
00
00
04
08
10
18
1C
08
00
00
00
00
00
ENDCHAR

STARTCHAR Ain
ENCODING 173
SWIDTH 889 0
DWIDTH 8 0
BBX 8 16 0 -6
BITMAP
00
00
00
00
00
00
1C
3E
1C
F7
00
00
00
00
00
00
ENDCHAR

STARTCHAR Ghain
ENCODING 174
SWIDTH 889 0
DWIDTH 8 0
BBX 8 16 0 -6
BITMAP
00
00
08
1C
08
00
1C
3E
1C
F7
00
00
00
00
00
00
ENDCHAR

STARTCHAR Heh
ENCODING 175
SWIDTH 889 0
DWIDTH 8 0
BBX 8 16 0 -6
BITMAP
00
00
00
00
0C
1C
14
24
28
FF
28
24
24
3C
18
00
ENDCHAR

STARTCHAR Arabic
ENCODING 176
SWIDTH 889 0
DWIDTH 8 0
BBX 8 16 0 -6
BITMAP
00
00
00
00
18
3C
3C
18
00
00
00
00
00
00
00
00
ENDCHAR

STARTCHAR Arabic
ENCODING 177
SWIDTH 889 0
DWIDTH 8 0
BBX 8 16 0 -6
BITMAP
00
20
30
30
38
18
18
08
08
08
00
00
00
00
00
00
ENDCHAR

STARTCHAR Arabic
ENCODING 178
SWIDTH 889 0
DWIDTH 8 0
BBX 8 16 0 -6
BITMAP
00
42
62
7E
3C
30
10
10
10
10
00
00
00
00
00
00
ENDCHAR

STARTCHAR Arabic
ENCODING 179
SWIDTH 889 0
DWIDTH 8 0
BBX 8 16 0 -6
BITMAP
00
49
49
7F
36
30
10
10
10
10
00
00
00
00
00
00
ENDCHAR

STARTCHAR Arabic
ENCODING 180
SWIDTH 889 0
DWIDTH 8 0
BBX 8 16 0 -6
BITMAP
0C
30
60
70
3C
18
30
60
70
3E
0E
00
00
00
00
00
ENDCHAR

STARTCHAR Arabic
ENCODING 181
SWIDTH 889 0
DWIDTH 8 0
BBX 8 16 0 -6
BITMAP
00
00
38
7C
6E
46
46
7E
3C
00
00
00
00
00
00
00
ENDCHAR

STARTCHAR Arabic
ENCODING 182
SWIDTH 889 0
DWIDTH 8 0
BBX 8 16 0 -6
BITMAP
00
42
7E
3C
04
04
04
06
06
02
00
00
00
00
00
00
ENDCHAR

STARTCHAR Arabic
ENCODING 183
SWIDTH 889 0
DWIDTH 8 0
BBX 8 16 0 -6
BITMAP
00
41
63
63
36
36
14
1C
08
08
00
00
00
00
00
00
ENDCHAR

STARTCHAR Arabic
ENCODING 184
SWIDTH 889 0
DWIDTH 8 0
BBX 8 16 0 -6
BITMAP
00
08
08
1C
14
36
36
63
63
41
00
00
00
00
00
00
ENDCHAR

STARTCHAR Arabic
ENCODING 185
SWIDTH 889 0
DWIDTH 8 0
BBX 8 16 0 -6
BITMAP
00
38
7C
44
44
7C
34
06
06
02
00
00
00
00
00
00
ENDCHAR

STARTCHAR Ghain
ENCODING 186
SWIDTH 889 0
DWIDTH 8 0
BBX 8 16 0 -6
BITMAP
00
00
08
1C
08
00
1C
3E
1C
27
40
40
40
61
3E
1C
ENDCHAR

STARTCHAR Arabic
ENCODING 187
SWIDTH 889 0
DWIDTH 8 0
BBX 8 16 0 -6
BITMAP
04
08
10
1C
1C
08
00
08
1C
1C
08
00
00
00
00
00
ENDCHAR

STARTCHAR Kaf
ENCODING 188
SWIDTH 889 0
DWIDTH 8 0
BBX 8 16 0 -6
BITMAP
03
0E
38
60
60
38
0E
03
03
FE
00
00
00
00
00
00
ENDCHAR

STARTCHAR Lam
ENCODING 189
SWIDTH 889 0
DWIDTH 8 0
BBX 8 16 0 -6
BITMAP
00
01
01
01
01
01
01
01
03
FE
00
00
00
00
00
00
ENDCHAR

STARTCHAR Hamza
ENCODING 190
SWIDTH 889 0
DWIDTH 8 0
BBX 8 16 0 -6
BITMAP
00
02
C2
E2
36
16
1A
1A
13
21
C0
18
20
34
18
20
ENDCHAR

STARTCHAR Arabic
ENCODING 191
SWIDTH 889 0
DWIDTH 8 0
BBX 8 16 0 -6
BITMAP
00
3C
66
66
60
30
18
18
00
18
3C
18
00
00
00
00
ENDCHAR

STARTCHAR Lam
ENCODING 192
SWIDTH 889 0
DWIDTH 8 0
BBX 8 16 0 -6
BITMAP
F0
02
C2
E2
36
16
1A
1A
13
21
C0
00
00
00
00
00
ENDCHAR

STARTCHAR Hamza
ENCODING 193
SWIDTH 889 0
DWIDTH 8 0
BBX 8 16 0 -6
BITMAP
00
00
00
18
3C
24
20
3A
1E
38
40
00
00
00
00
00
ENDCHAR

STARTCHAR Alef
ENCODING 194
SWIDTH 889 0
DWIDTH 8 0
BBX 8 16 0 -6
BITMAP
39
46
10
10
10
10
10
10
10
10
10
00
00
00
00
00
ENDCHAR

STARTCHAR Alef
ENCODING 195
SWIDTH 889 0
DWIDTH 8 0
BBX 8 16 0 -6
BITMAP
18
30
1C
28
08
08
08
08
08
08
08
00
00
00
00
00
ENDCHAR

STARTCHAR Waw
ENCODING 196
SWIDTH 889 0
DWIDTH 8 0
BBX 8 16 0 -6
BITMAP
30
40
68
30
4C
1E
13
13
1F
0F
03
06
0E
7C
38
00
ENDCHAR

STARTCHAR Hamza
ENCODING 197
SWIDTH 889 0
DWIDTH 8 0
BBX 8 16 0 -6
BITMAP
00
08
08
08
08
08
08
08
08
08
00
0C
10
1A
0C
10
ENDCHAR

STARTCHAR Yeh
ENCODING 198
SWIDTH 889 0
DWIDTH 8 0
BBX 8 16 0 -6
BITMAP
18
20
34
18
20
01
01
01
03
FE
00
00
00
00
00
00
ENDCHAR

STARTCHAR Alef
ENCODING 199
SWIDTH 889 0
DWIDTH 8 0
BBX 8 16 0 -6
BITMAP
00
08
08
08
08
08
08
08
08
08
08
00
00
00
00
00
ENDCHAR

STARTCHAR Beh
ENCODING 200
SWIDTH 889 0
DWIDTH 8 0
BBX 8 16 0 -6
BITMAP
00
00
00
00
00
01
01
01
03
FE
00
08
1C
08
00
00
ENDCHAR

STARTCHAR Teh
ENCODING 201
SWIDTH 889 0
DWIDTH 8 0
BBX 8 16 0 -6
BITMAP
24
7E
24
18
3C
66
42
42
7E
3C
00
00
00
00
00
00
ENDCHAR

STARTCHAR Teh
ENCODING 202
SWIDTH 889 0
DWIDTH 8 0
BBX 8 16 0 -6
BITMAP
00
04
2E
74
20
01
01
01
03
FE
00
00
00
00
00
00
ENDCHAR

STARTCHAR Theh
ENCODING 203
SWIDTH 889 0
DWIDTH 8 0
BBX 8 16 0 -6
BITMAP
10
38
54
EE
44
01
01
01
03
FE
00
00
00
00
00
00
ENDCHAR

STARTCHAR Jeem
ENCODING 204
SWIDTH 889 0
DWIDTH 8 0
BBX 8 16 0 -6
BITMAP
00
00
00
00
00
00
38
4C
07
FF
00
10
38
10
00
00
ENDCHAR

STARTCHAR Hah
ENCODING 205
SWIDTH 889 0
DWIDTH 8 0
BBX 8 16 0 -6
BITMAP
00
00
00
00
00
00
38
4C
07
FF
00
00
00
00
00
00
ENDCHAR

STARTCHAR Khah
ENCODING 206
SWIDTH 889 0
DWIDTH 8 0
BBX 8 16 0 -6
BITMAP
00
00
10
38
10
00
38
4C
07
FF
00
00
00
00
00
00
ENDCHAR

STARTCHAR Dal
ENCODING 207
SWIDTH 889 0
DWIDTH 8 0
BBX 8 16 0 -6
BITMAP
00
00
00
0C
0E
03
01
21
3F
1E
00
00
00
00
00
00
ENDCHAR

STARTCHAR Thal
ENCODING 208
SWIDTH 889 0
DWIDTH 8 0
BBX 8 16 0 -6
BITMAP
10
38
10
0C
0E
03
01
21
3F
1E
00
00
00
00
00
00
ENDCHAR

STARTCHAR Ra
ENCODING 209
SWIDTH 889 0
DWIDTH 8 0
BBX 8 16 0 -6
BITMAP
00
00
00
00
00
00
02
03
01
01
03
07
0E
3C
00
00
ENDCHAR

STARTCHAR Zain
ENCODING 210
SWIDTH 889 0
DWIDTH 8 0
BBX 8 16 0 -6
BITMAP
00
04
0E
04
00
00
02
03
01
01
03
07
0E
3C
00
00
ENDCHAR

STARTCHAR Seen
ENCODING 211
SWIDTH 889 0
DWIDTH 8 0
BBX 8 16 0 -6
BITMAP
00
00
00
00
00
01
89
C9
7F
56
40
C0
80
00
00
00
ENDCHAR

STARTCHAR Sheen
ENCODING 212
SWIDTH 889 0
DWIDTH 8 0
BBX 8 16 0 -6
BITMAP
10
38
54
EE
44
01
89
C9
7F
56
40
C0
80
00
00
00
ENDCHAR

STARTCHAR Sad
ENCODING 213
SWIDTH 889 0
DWIDTH 8 0
BBX 8 16 0 -6
BITMAP
00
00
00
00
00
00
06
89
D1
7E
50
C0
80
00
00
00
ENDCHAR

STARTCHAR Dad
ENCODING 214
SWIDTH 889 0
DWIDTH 8 0
BBX 8 16 0 -6
BITMAP
00
00
10
38
10
00
06
89
D1
7E
50
C0
80
00
00
00
ENDCHAR

STARTCHAR Tah
ENCODING 215
SWIDTH 889 0
DWIDTH 8 0
BBX 8 16 0 -6
BITMAP
00
40
40
40
40
40
4E
51
61
FE
00
00
00
00
00
00
ENDCHAR

STARTCHAR Zah
ENCODING 216
SWIDTH 889 0
DWIDTH 8 0
BBX 8 16 0 -6
BITMAP
00
40
44
4E
44
40
4E
51
61
FE
00
00
00
00
00
00
ENDCHAR

STARTCHAR Ain
ENCODING 217
SWIDTH 889 0
DWIDTH 8 0
BBX 8 16 0 -6
BITMAP
00
00
00
00
30
60
64
38
10
20
40
40
40
61
3E
1C
ENDCHAR

STARTCHAR Ghain
ENCODING 218
SWIDTH 889 0
DWIDTH 8 0
BBX 8 16 0 -6
BITMAP
20
70
20
00
30
60
64
38
10
20
40
40
40
61
3E
1C
ENDCHAR

STARTCHAR Jeem
ENCODING 219
SWIDTH 889 0
DWIDTH 8 0
BBX 8 16 0 -6
BITMAP
00
00
00
00
00
00
30
7E
9C
27
48
5C
48
61
3E
1C
ENDCHAR

STARTCHAR Hah
ENCODING 220
SWIDTH 889 0
DWIDTH 8 0
BBX 8 16 0 -6
BITMAP
00
00
00
00
00
00
30
7E
9C
27
40
40
40
61
3E
1C
ENDCHAR

STARTCHAR Khah
ENCODING 221
SWIDTH 889 0
DWIDTH 8 0
BBX 8 16 0 -6
BITMAP
00
00
08
1C
08
00
30
7E
9C
27
40
40
40
61
3E
1C
ENDCHAR

STARTCHAR Shadda
ENCODING 222
SWIDTH 889 0
DWIDTH 8 0
BBX 8 16 0 -6
BITMAP
02
0A
2A
2C
30
00
00
00
00
FF
00
00
00
00
00
00
ENDCHAR

STARTCHAR Yeh
ENCODING 223
SWIDTH 889 0
DWIDTH 8 0
BBX 8 16 0 -6
BITMAP
00
30
40
68
30
40
06
0E
48
8C
86
82
C6
FE
7C
00
ENDCHAR

STARTCHAR Tatweel
ENCODING 224
SWIDTH 889 0
DWIDTH 8 0
BBX 8 16 0 -6
BITMAP
00
00
00
00
00
00
00
00
00
FF
00
00
00
00
00
00
ENDCHAR

STARTCHAR Feh
ENCODING 225
SWIDTH 889 0
DWIDTH 8 0
BBX 8 16 0 -6
BITMAP
20
70
20
06
0B
09
0D
07
01
FE
00
00
00
00
00
00
ENDCHAR

STARTCHAR Qaf
ENCODING 226
SWIDTH 889 0
DWIDTH 8 0
BBX 8 16 0 -6
BITMAP
04
2E
74
20
0C
1E
13
53
9F
8F
83
83
C6
FE
78
00
ENDCHAR

STARTCHAR Kaf
ENCODING 227
SWIDTH 889 0
DWIDTH 8 0
BBX 8 16 0 -6
BITMAP
00
01
01
01
0D
11
5D
85
99
C3
FE
7C
00
00
00
00
ENDCHAR

STARTCHAR Lam
ENCODING 228
SWIDTH 889 0
DWIDTH 8 0
BBX 8 16 0 -6
BITMAP
00
01
01
01
01
01
01
01
11
21
41
41
63
7E
3C
00
ENDCHAR

STARTCHAR Meem
ENCODING 229
SWIDTH 889 0
DWIDTH 8 0
BBX 8 16 0 -6
BITMAP
00
00
00
00
0E
1F
33
21
1F
3E
20
20
20
10
10
08
ENDCHAR

STARTCHAR Noon
ENCODING 230
SWIDTH 889 0
DWIDTH 8 0
BBX 8 16 0 -6
BITMAP
00
00
00
00
10
38
10
04
46
83
83
83
C7
FE
7C
00
ENDCHAR

STARTCHAR Heh
ENCODING 231
SWIDTH 889 0
DWIDTH 8 0
BBX 8 16 0 -6
BITMAP
00
00
00
18
3C
66
42
42
7E
3C
00
00
00
00
00
00
ENDCHAR

STARTCHAR Waw
ENCODING 232
SWIDTH 889 0
DWIDTH 8 0
BBX 8 16 0 -6
BITMAP
00
00
00
00
0C
1E
13
13
1F
0F
03
06
0E
7C
38
00
ENDCHAR

STARTCHAR Alef
ENCODING 233
SWIDTH 889 0
DWIDTH 8 0
BBX 8 16 0 -6
BITMAP
00
00
00
00
00
06
0E
48
8C
86
82
C6
FE
7C
00
00
ENDCHAR

STARTCHAR Yeh
ENCODING 234
SWIDTH 889 0
DWIDTH 8 0
BBX 8 16 0 -6
BITMAP
00
00
00
00
00
06
0E
48
8C
86
C6
FE
7C
00
6C
6C
ENDCHAR

STARTCHAR Fathatan
ENCODING 235
SWIDTH 889 0
DWIDTH 8 0
BBX 8 16 0 -6
BITMAP
02
0C
12
0C
10
00
00
00
00
00
00
00
00
00
00
00
ENDCHAR

STARTCHAR Dammatan
ENCODING 236
SWIDTH 889 0
DWIDTH 8 0
BBX 8 16 0 -6
BITMAP
06
0A
0E
26
78
10
20
00
00
00
00
00
00
00
00
00
ENDCHAR

STARTCHAR Kasratan
ENCODING 237
SWIDTH 889 0
DWIDTH 8 0
BBX 8 16 0 -6
BITMAP
00
00
00
00
00
00
00
00
00
00
00
02
0C
12
0C
10
ENDCHAR

STARTCHAR Fatha
ENCODING 238
SWIDTH 889 0
DWIDTH 8 0
BBX 8 16 0 -6
BITMAP
02
0C
10
00
00
00
00
00
00
00
00
00
00
00
00
00
ENDCHAR

STARTCHAR Damma
ENCODING 239
SWIDTH 889 0
DWIDTH 8 0
BBX 8 16 0 -6
BITMAP
06
0A
0E
06
08
10
00
00
00
00
00
00
00
00
00
00
ENDCHAR

STARTCHAR Kasra
ENCODING 240
SWIDTH 889 0
DWIDTH 8 0
BBX 8 16 0 -6
BITMAP
00
00
00
00
00
00
00
00
00
00
00
00
00
02
0C
10
ENDCHAR

STARTCHAR Shadda
ENCODING 241
SWIDTH 889 0
DWIDTH 8 0
BBX 8 16 0 -6
BITMAP
02
0A
2A
2C
30
00
00
00
00
00
00
00
00
00
00
00
ENDCHAR

STARTCHAR Sukun
ENCODING 242
SWIDTH 889 0
DWIDTH 8 0
BBX 8 16 0 -6
BITMAP
0C
12
12
0C
00
00
00
00
00
00
00
00
00
00
00
00
ENDCHAR

STARTCHAR Ain
ENCODING 243
SWIDTH 889 0
DWIDTH 8 0
BBX 8 16 0 -6
BITMAP
00
00
00
00
18
3C
60
60
3E
FC
00
00
00
00
00
00
ENDCHAR

STARTCHAR Ghain
ENCODING 244
SWIDTH 889 0
DWIDTH 8 0
BBX 8 16 0 -6
BITMAP
10
38
10
00
18
3C
60
60
3E
FC
00
00
00
00
00
00
ENDCHAR

STARTCHAR Heh
ENCODING 245
SWIDTH 889 0
DWIDTH 8 0
BBX 8 16 0 -6
BITMAP
00
00
60
70
38
6C
4E
72
3A
CC
00
00
00
00
00
00
ENDCHAR

STARTCHAR Shadda
ENCODING 246
SWIDTH 889 0
DWIDTH 8 0
BBX 8 16 0 -6
BITMAP
06
18
22
0A
2A
2C
30
00
00
00
00
00
00
00
00
00
ENDCHAR

STARTCHAR Shadda
ENCODING 247
SWIDTH 889 0
DWIDTH 8 0
BBX 8 16 0 -6
BITMAP
0C
14
1C
32
4A
2A
2C
30
00
00
00
00
00
00
00
00
ENDCHAR

STARTCHAR Kasra
ENCODING 248
SWIDTH 889 0
DWIDTH 8 0
BBX 8 16 0 -6
BITMAP
02
0A
2A
2C
32
0C
30
00
00
00
00
00
00
00
00
00
ENDCHAR

STARTCHAR Shadda
ENCODING 249
SWIDTH 889 0
DWIDTH 8 0
BBX 8 16 0 -6
BITMAP
0C
14
1C
32
4A
2A
2C
30
00
FF
00
00
00
00
00
00
ENDCHAR

STARTCHAR Kasra
ENCODING 250
SWIDTH 889 0
DWIDTH 8 0
BBX 8 16 0 -6
BITMAP
02
0A
2A
2C
32
0C
30
00
00
FF
00
00
00
00
00
00
ENDCHAR

STARTCHAR Fatha
ENCODING 251
SWIDTH 889 0
DWIDTH 8 0
BBX 8 16 0 -6
BITMAP
00
02
0C
30
00
00
00
00
00
FF
00
00
00
00
00
00
ENDCHAR

STARTCHAR Damma
ENCODING 252
SWIDTH 889 0
DWIDTH 8 0
BBX 8 16 0 -6
BITMAP
06
0A
0E
04
08
10
00
00
00
FF
00
00
00
00
00
00
ENDCHAR

STARTCHAR Kasra
ENCODING 253
SWIDTH 889 0
DWIDTH 8 0
BBX 8 16 0 -6
BITMAP
00
00
00
00
00
00
00
00
00
FF
00
00
02
0C
10
00
ENDCHAR

STARTCHAR Sukun
ENCODING 254
SWIDTH 889 0
DWIDTH 8 0
BBX 8 16 0 -6
BITMAP
0C
12
12
0C
00
00
00
00
00
FF
00
00
00
00
00
00
ENDCHAR
ENDFONT
